<?xml version="1.0" encoding="UTF-8"?>
<svg version="1.1" xmlns="http://www.w3.org/2000/svg" width="624" height="412">
<path d="M0 0 C3.48159692 1.39263877 5.91630902 2.44223321 8.92431641 4.42895508 C9.66779327 4.91697098 10.41127014 5.40498688 11.17727661 5.90779114 C11.97729095 6.43966537 12.7773053 6.97153961 13.6015625 7.51953125 C14.45354218 8.08109421 15.30552185 8.64265717 16.18331909 9.22123718 C19.00036388 11.08027128 21.8127723 12.9461884 24.625 14.8125 C26.60991591 16.12516655 28.59494373 17.4376639 30.58007812 18.75 C44.83270711 28.18409551 59.01244112 37.724411 73.16680908 47.30508423 C87.61262225 57.08156857 102.14567977 66.71739779 116.72702026 76.29034424 C132.90118782 86.91246188 148.96616003 97.69022142 164.98242188 108.54882812 C165.841577 109.1306485 166.70073212 109.71246887 167.58592224 110.31192017 C169.16524131 111.38174293 170.74367832 112.45286984 172.32093811 113.52572632 C173.04075363 114.01336456 173.76056915 114.50100281 174.50219727 115.00341797 C175.17169749 115.47365859 175.84119772 115.94389921 176.53098583 116.42838955 C178.98480298 118.07668187 178.98480298 118.07668187 181.80158615 119.24086285 C185.1147749 120.8508688 187.43863689 122.33622886 190 125 C191.6258302 130.51438615 191.39483343 135.87833753 191.2487793 141.58374023 C191.24567419 143.27933041 191.24742266 144.97493537 191.25364685 146.67051697 C191.2567978 151.26216847 191.19222704 155.85064649 191.11533332 160.44156146 C191.04647342 165.24335212 191.04010007 170.04521915 191.02705383 174.84742737 C190.99289125 183.93563178 190.90266379 193.02237716 190.79220945 202.10993963 C190.64615638 214.39355542 190.58686967 226.67757146 190.52268505 238.96183681 C190.41931277 258.30898367 190.20016176 277.65305191 190 297 C142.81 297 95.62 297 47 297 C47 334.95 47 372.9 47 412 C31.49 412 15.98 412 0 412 C0 276.04 0 140.08 0 0 Z M47 84 C47 140.43 47 196.86 47 255 C78.68 255 110.36 255 143 255 C144.25564036 236.51549789 144.25564036 236.51549789 145.09960938 218.02539062 C145.35488137 210.44685518 145.65269752 202.89105466 146.24389648 195.33032227 C149.09787261 168.82941854 149.09787261 168.82941854 141.13300323 144.36644745 C131.41313173 133.63390338 118.2014157 126.96536294 105.35551453 120.70329285 C97.46655548 116.82362443 90.25651665 111.93542954 83 107 C82.09640244 106.39597855 81.19280487 105.79195709 80.26182556 105.16963196 C78.15618137 103.75756368 76.06233063 102.33008612 73.97265625 100.89453125 C72.48773198 99.88201218 71.00270342 98.86964606 69.51757812 97.85742188 C67.25823653 96.31428087 64.99996507 94.76962286 62.7434082 93.22241211 C60.510062 91.6923966 58.27292588 90.16806686 56.03515625 88.64453125 C55.35510025 88.17594193 54.67504425 87.7073526 53.97438049 87.2245636 C50.775798 84.81522961 50.775798 84.81522961 47 84 Z " fill="#7DB83E" transform="translate(217,0)"/>
<path d="M0 0 C0 109.56 0 219.12 0 332 C-62.37 332 -124.74 332 -189 332 C-190.73303047 281.25847992 -190.73303047 281.25847992 -191.09960938 259.83398438 C-191.35389084 245.09193688 -191.65105518 230.36052546 -192.24389648 215.62768555 C-192.67571784 204.89117026 -192.95058694 194.16334461 -193.04580528 183.41838807 C-193.10142916 177.73520193 -193.22939547 172.07683723 -193.54639244 166.40172768 C-195.35045923 132.84034054 -195.35045923 132.84034054 -187.00069857 122.53164244 C-175.53254517 110.93158387 -158.00731617 99.00182904 -142 95 C-142 159.35 -142 223.7 -142 290 C-110.65 290 -79.3 290 -47 290 C-47.33777466 278.4135437 -47.33777466 278.4135437 -47.68237305 266.59301758 C-48.37513561 241.76881015 -48.85190055 216.94484751 -49.19580917 192.11350428 C-49.24957813 188.2453229 -49.30523508 184.37717083 -49.36206055 180.5090332 C-49.3733399 179.73908036 -49.38461924 178.96912753 -49.39624039 178.17584278 C-49.58248449 165.76861457 -49.92094458 153.37010772 -50.31757023 140.96802501 C-50.72228083 128.20494363 -50.95903618 115.44636621 -51.04580528 102.67713469 C-51.09913734 95.51555417 -51.22624131 88.37215507 -51.54639244 81.21711159 C-53.39418755 38.73909443 -53.39418755 38.73909443 -44.98641634 27.24798536 C-33.87260921 15.15736081 -18.81983864 7.58309739 -4 1 C-2 0 -2 0 0 0 Z " fill="#009BE3" transform="translate(189,80)"/>
<path d="M0 0 C4.37617644 1.75047058 6.98592469 3.29935224 10.6875 6.0625 C17.86686157 11.327162 25.29531698 16.20113767 32.75 21.0625 C33.33897064 21.44729523 33.92794128 21.83209045 34.53475952 22.22854614 C40.62568409 26.35613807 40.62568409 26.35613807 47 30 C47 97.32 47 164.64 47 234 C78.35 234 109.7 234 142 234 C142 214.53 142 195.06 142 175 C143.65 175.66 145.3 176.32 147 177 C147.72459915 177.27249069 148.4491983 177.54498138 149.195755 177.82572937 C166.23059388 184.28776726 174.53649937 192.19696167 189 205 C189 228.43 189 251.86 189 276 C126.63 276 64.26 276 0 276 C0 184.92 0 93.84 0 0 Z " fill="#009BE3" transform="translate(435,136)"/>
</svg>
